
<svg version="1.0" xmlns="http://www.w3.org/2000/svg"
 width="3066.000000pt" height="776.000000pt" viewBox="0 0 3066.000000 776.000000"
 preserveAspectRatio="xMidYMid meet">

<g transform="translate(0.000000,776.000000) scale(0.100000,-0.100000)"
fill="#000000" stroke="none">
<path d="M12710 5800 l0 -460 -235 0 -235 0 0 -250 0 -250 235 0 234 0 3 -717
c4 -705 4 -719 26 -798 70 -254 222 -414 462 -486 71 -22 94 -23 478 -27 l402
-3 0 249 0 250 -212 4 c-193 4 -219 6 -272 27 -77 30 -133 82 -167 154 -50
107 -54 153 -54 772 l0 570 353 3 352 2 0 250 0 250 -352 2 -353 3 -3 458 -2
457 -330 0 -330 0 0 -460z"/>
<path d="M14700 5800 l0 -460 -235 0 -235 0 0 -250 0 -250 235 0 235 0 0 -632
c0 -348 5 -678 10 -732 35 -360 219 -582 535 -647 78 -16 139 -19 463 -19
l372 0 0 250 0 250 -185 0 c-198 0 -261 9 -342 47 -95 44 -147 133 -173 293
-6 39 -10 292 -10 628 l0 562 355 0 355 0 0 250 0 250 -355 0 -355 0 0 460 0
460 -335 0 -335 0 0 -460z"/>
<path d="M16480 4535 l0 -1725 330 0 330 0 2 988 3 987 265 3 c294 3 430 -7
517 -39 77 -29 133 -87 164 -170 l24 -64 3 -852 3 -853 334 0 335 0 0 878 c0
938 -2 979 -51 1125 -75 225 -225 373 -459 452 -175 60 -337 75 -792 75 l-348
0 0 460 0 460 -330 0 -330 0 0 -1725z"/>
<path d="M9570 4488 c0 -561 4 -884 11 -943 44 -361 200 -565 511 -669 176
-59 186 -60 1021 -63 l767 -4 0 1266 0 1265 -330 0 -330 0 -2 -987 -3 -988
-300 -3 c-186 -2 -330 1 -379 8 -204 29 -269 96 -296 300 -5 43 -10 416 -10
873 l0 797 -330 0 -330 0 0 -852z"/>
<path d="M19363 4423 c3 -902 4 -920 25 -1008 33 -139 108 -280 191 -363 119
-120 300 -196 538 -227 92 -12 252 -15 834 -15 l719 0 0 1265 0 1265 -335 0
-335 0 0 -991 0 -991 -352 5 c-379 4 -412 8 -501 60 -29 17 -52 42 -71 77 -53
98 -55 132 -56 1023 l0 817 -330 0 -331 0 4 -917z"/>
<path d="M22280 4076 l0 -1266 330 0 330 0 2 988 3 987 275 3 c584 6 666 -32
700 -328 6 -48 10 -424 10 -867 l0 -783 330 0 330 0 0 873 c0 931 -2 975 -50
1132 -37 119 -87 203 -169 285 -112 111 -240 169 -464 212 -107 20 -149 21
-869 25 l-758 4 0 -1265z"/>
<path d="M26071 5329 c-52 -5 -132 -15 -176 -24 -450 -84 -756 -409 -867 -918
-19 -88 -22 -132 -22 -322 0 -237 13 -334 70 -503 95 -285 291 -525 523 -641
187 -94 249 -103 811 -110 l455 -6 3 -54 c2 -34 -5 -79 -18 -124 -27 -89 -95
-162 -185 -198 l-60 -24 -667 -3 -668 -3 0 -255 0 -255 778 4 c748 3 780 4
862 24 343 85 519 268 602 630 l22 98 3 1348 4 1347 -688 -1 c-378 -1 -730 -6
-782 -10z m799 -1264 l0 -735 -259 0 c-268 0 -359 8 -488 41 -258 65 -384 225
-423 533 -27 216 4 446 79 594 36 70 153 185 229 225 125 66 187 74 580 76
l282 1 0 -735z"/>
<path d="M28160 5081 l0 -260 668 -4 c705 -4 704 -4 843 -53 72 -25 159 -110
183 -179 10 -28 20 -93 23 -147 l6 -97 -579 -4 c-634 -4 -669 -6 -857 -67
-182 -58 -300 -155 -372 -305 -57 -119 -76 -209 -82 -385 -4 -120 -2 -162 15
-243 58 -279 244 -455 542 -511 71 -14 213 -16 1051 -16 l969 0 0 848 c0 694
-3 865 -15 945 -60 400 -288 626 -720 714 -69 14 -192 16 -877 20 l-798 4 0
-260z m1725 -1506 l0 -260 -490 0 c-521 0 -571 4 -636 48 -45 31 -73 89 -77
166 -12 180 62 270 246 301 26 4 252 7 502 6 l455 -1 0 -260z"/>
<path d="M24429 1556 c-101 -36 -138 -98 -148 -244 l-6 -97 -62 -3 c-62 -3
-63 -3 -63 -32 0 -29 1 -29 63 -32 l62 -3 3 -367 2 -368 45 0 45 0 0 370 0
370 95 0 95 0 0 30 0 30 -96 0 -96 0 4 94 c2 76 7 100 24 122 39 53 68 67 141
68 l68 1 3 31 c3 26 -1 33 -20 38 -38 10 -121 6 -159 -8z"/>
<path d="M14842 1494 c-18 -12 -22 -24 -20 -52 2 -30 8 -38 30 -46 43 -15 78
6 78 46 0 18 -4 38 -8 45 -13 21 -56 25 -80 7z"/>
<path d="M18100 1490 c-24 -24 -25 -48 -4 -78 18 -26 65 -30 88 -6 24 23 20
70 -6 88 -30 21 -54 20 -78 -4z"/>
<path d="M28760 1490 c-39 -39 -14 -100 42 -100 53 0 79 74 36 104 -30 21 -54
20 -78 -4z"/>
<path d="M12290 950 l0 -540 335 0 335 0 0 40 0 40 -290 0 -290 0 0 220 0 220
255 0 255 0 0 40 0 40 -255 0 -255 0 0 205 0 205 290 0 290 0 0 35 0 35 -335
0 -335 0 0 -540z"/>
<path d="M20380 1455 l0 -35 185 0 185 0 0 -505 0 -505 40 0 40 0 2 503 3 502
188 3 187 2 0 35 0 35 -415 0 -415 0 0 -35z"/>
<path d="M28308 1318 l-3 -103 -72 -3 -73 -3 0 -29 0 -29 73 -3 72 -3 5 -320
c5 -299 6 -322 25 -355 30 -52 76 -71 160 -68 l70 3 3 37 3 37 -48 -5 c-60 -6
-92 10 -116 56 -15 31 -17 65 -15 325 l3 290 83 3 82 3 0 29 0 29 -82 3 -83 3
-3 103 -3 102 -39 0 -39 0 -3 -102z"/>
<path d="M13387 1214 c-33 -10 -66 -32 -105 -70 -31 -29 -57 -54 -59 -54 -2 0
-3 27 -3 60 l0 60 -40 0 -40 0 0 -400 0 -400 40 0 40 0 0 278 0 278 33 54 c60
101 163 152 263 130 63 -14 89 -34 116 -88 22 -45 23 -57 26 -349 l3 -303 40
0 39 0 0 303 c0 355 -5 386 -75 453 -65 63 -171 81 -278 48z"/>
<path d="M14157 1216 c-93 -34 -162 -108 -193 -211 -22 -71 -29 -227 -15 -311
32 -182 127 -282 275 -292 98 -6 169 15 229 69 l47 41 0 -64 c0 -176 -88 -277
-240 -278 -76 0 -148 29 -194 79 l-30 31 -23 -22 c-32 -30 -29 -41 19 -82 63
-55 137 -79 238 -79 135 0 220 48 278 158 l27 50 3 453 3 453 -38 -3 c-38 -3
-38 -3 -41 -51 l-3 -48 -51 45 c-77 70 -196 95 -291 62z m208 -81 c45 -18 93
-63 115 -106 18 -34 20 -59 20 -226 l0 -188 -34 -46 c-84 -115 -255 -131 -353
-33 -64 64 -87 149 -81 302 3 101 8 125 30 172 15 30 33 62 40 70 65 73 168
95 263 55z"/>
<path d="M15433 1221 c-49 -13 -119 -57 -152 -97 l-30 -37 -7 62 -7 61 -38 0
-39 0 0 -400 0 -400 45 0 45 0 0 280 c0 259 2 284 20 319 24 49 72 97 119 120
116 58 250 13 280 -94 7 -25 11 -151 11 -332 l0 -293 45 0 45 0 0 273 c0 149
-5 301 -11 337 -21 134 -90 198 -221 205 -40 2 -87 1 -105 -4z"/>
<path d="M16192 1212 c-140 -50 -228 -183 -239 -362 -12 -199 56 -342 199
-417 48 -25 62 -28 158 -28 86 0 113 4 151 21 48 22 129 89 129 106 0 5 -10
18 -22 28 -22 18 -23 17 -56 -11 -61 -54 -110 -73 -192 -73 -90 -1 -135 18
-197 82 -50 51 -83 132 -83 202 l0 50 285 0 285 0 0 55 c0 160 -73 292 -187
341 -61 25 -169 28 -231 6z m185 -73 c69 -22 137 -126 145 -224 l3 -30 -244
-3 -243 -2 6 37 c10 57 51 134 90 172 64 62 149 80 243 50z"/>
<path d="M16995 1217 c-130 -44 -215 -143 -246 -288 -6 -29 -9 -98 -7 -154 4
-87 9 -111 35 -166 40 -86 79 -129 155 -170 60 -33 68 -34 168 -34 121 0 171
18 244 87 l41 40 -28 24 -29 25 -43 -40 c-45 -41 -121 -71 -180 -71 -55 0
-129 28 -173 65 -54 47 -101 142 -104 215 l-3 55 288 3 287 2 0 48 c0 60 -24
171 -44 211 -27 52 -77 101 -129 128 -61 30 -171 40 -232 20z m134 -68 c96
-20 181 -130 181 -234 l0 -35 -240 0 c-273 0 -255 -7 -223 89 27 86 106 162
188 182 43 10 39 10 94 -2z"/>
<path d="M17798 1214 c-33 -10 -59 -28 -92 -65 l-46 -51 0 56 0 56 -40 0 -40
0 0 -400 0 -400 40 0 40 0 0 280 c0 311 1 318 65 389 42 46 121 76 180 69 32
-4 33 -2 37 34 2 25 -1 39 -10 43 -24 9 -86 4 -134 -11z"/>
<path d="M18705 1221 c-52 -13 -110 -48 -148 -90 -20 -23 -39 -41 -42 -41 -3
0 -5 27 -5 60 l0 60 -40 0 -40 0 0 -400 0 -400 40 0 40 0 0 273 c0 301 3 314
69 389 97 111 277 109 341 -3 25 -44 25 -45 28 -351 l3 -308 40 0 40 0 -3 328
c-3 317 -4 328 -25 369 -13 23 -35 54 -50 68 -49 45 -163 66 -248 46z"/>
<path d="M19463 1221 c-110 -28 -188 -124 -219 -270 -39 -188 13 -409 117
-492 109 -86 293 -78 391 18 l38 37 0 -70 c0 -97 -21 -161 -67 -206 -51 -49
-99 -68 -175 -68 -74 0 -128 22 -185 74 l-40 36 -22 -24 c-29 -31 -18 -53 44
-96 69 -48 120 -63 215 -63 109 -1 172 25 234 94 80 89 80 86 84 582 l3 437
-39 0 -39 0 -7 -51 -7 -51 -36 37 c-20 21 -57 47 -82 58 -50 22 -156 31 -208
18z m197 -88 c42 -17 64 -36 101 -87 l29 -39 0 -197 0 -197 -29 -40 c-57 -78
-159 -116 -253 -94 -72 16 -111 50 -150 128 -32 67 -33 70 -33 203 1 115 4
143 23 190 53 133 180 188 312 133z"/>
<path d="M21550 1221 c-51 -16 -89 -41 -124 -83 l-36 -43 0 58 0 57 -40 0 -40
0 0 -400 0 -400 40 0 40 0 0 275 c0 225 3 282 15 312 41 98 111 147 213 147
l63 1 -3 40 -3 40 -50 2 c-27 1 -61 -2 -75 -6z"/>
<path d="M21971 1214 c-91 -24 -156 -75 -185 -146 -25 -60 -22 -68 28 -68 40
0 44 2 49 29 7 35 57 87 106 107 58 26 158 23 216 -6 70 -35 95 -81 95 -177
l0 -73 -89 0 c-117 0 -235 -17 -291 -41 -201 -89 -199 -347 4 -424 99 -38 263
-3 343 72 34 32 43 27 43 -22 0 -46 10 -55 57 -55 43 0 45 1 38 23 -5 12 -11
155 -14 317 -6 291 -6 296 -31 345 -57 112 -212 161 -369 119z m309 -498 c0
-91 -1 -96 -33 -138 -50 -65 -131 -103 -221 -103 -54 0 -80 5 -106 21 -100 58
-109 189 -18 258 54 40 121 55 256 55 l122 1 0 -94z"/>
<path d="M22855 1212 c-33 -11 -68 -34 -104 -69 -30 -29 -56 -53 -58 -53 -2 0
-3 27 -3 60 l0 60 -40 0 -40 0 0 -400 0 -400 40 0 40 0 0 278 0 278 33 54 c60
101 163 152 263 130 63 -14 89 -34 116 -88 22 -45 23 -57 26 -349 l3 -303 40
0 39 0 0 303 c0 355 -5 386 -75 453 -66 64 -174 81 -280 46z"/>
<path d="M23608 1216 c-139 -37 -211 -163 -160 -279 34 -77 91 -107 305 -162
161 -41 223 -151 136 -241 -105 -108 -346 -69 -389 62 -11 31 -15 34 -52 34
l-41 0 6 -41 c3 -24 17 -56 35 -78 67 -83 157 -116 296 -108 101 5 148 21 201
68 50 44 65 78 65 149 0 128 -66 183 -291 240 -154 40 -204 81 -196 163 2 27
12 56 23 68 59 66 191 84 280 38 53 -27 94 -78 94 -115 0 -22 4 -24 46 -24
l47 0 -7 43 c-23 146 -212 233 -398 183z"/>
<path d="M24944 1221 c-190 -49 -297 -245 -265 -485 20 -143 87 -247 196 -304
65 -33 186 -42 266 -18 184 54 283 268 238 512 -23 124 -96 224 -197 271 -57
27 -180 39 -238 24z m191 -90 c55 -24 103 -75 134 -141 24 -50 26 -66 26 -180
0 -117 -2 -129 -28 -182 -34 -70 -94 -124 -161 -143 -62 -19 -90 -19 -153 0
-64 19 -126 78 -160 153 -37 80 -44 214 -15 309 53 172 204 250 357 184z"/>
<path d="M25805 1217 c-26 -6 -57 -28 -92 -63 l-53 -53 0 55 0 54 -40 0 -40 0
0 -400 0 -400 40 0 40 0 0 280 c0 265 1 283 21 325 40 85 144 145 229 133 26
-4 29 -1 35 30 4 24 2 38 -7 43 -17 11 -83 10 -133 -4z"/>
<path d="M26355 1221 c-56 -15 -113 -50 -149 -92 l-36 -43 0 62 0 62 -40 0
-40 0 0 -400 0 -400 40 0 40 0 0 278 c0 257 2 280 21 322 36 80 86 120 173
140 59 13 136 -3 178 -38 59 -50 62 -67 66 -399 l4 -303 39 0 39 0 0 271 c0
179 4 285 12 311 16 53 78 122 130 143 53 22 153 23 194 2 37 -19 69 -54 85
-92 10 -21 14 -117 17 -332 l4 -303 39 0 39 0 0 295 c0 322 -6 373 -51 434
-46 64 -97 85 -204 86 -79 0 -97 -3 -147 -28 -32 -16 -74 -48 -95 -71 l-37
-42 -30 45 c-43 63 -98 92 -189 96 -39 2 -85 1 -102 -4z"/>
<path d="M27627 1219 c-103 -24 -207 -124 -207 -199 0 -19 5 -21 42 -18 34 2
44 7 46 23 13 71 108 128 213 128 138 0 209 -69 209 -203 l0 -67 -142 -6
c-217 -9 -312 -48 -362 -149 -65 -130 -3 -274 138 -318 98 -31 261 7 333 79
l31 32 9 -53 8 -53 49 -3 c47 -3 48 -2 41 20 -4 13 -11 156 -14 318 l-7 295
-27 53 c-55 106 -207 157 -360 121z m303 -501 c0 -83 -3 -96 -26 -129 -46 -67
-149 -119 -234 -119 -82 0 -159 54 -179 125 -23 85 30 162 135 195 44 14 90
19 182 19 l122 1 0 -92z"/>
<path d="M29307 1220 c-178 -45 -276 -206 -265 -435 13 -257 153 -397 383
-383 136 9 229 73 289 198 30 64 31 68 31 210 0 128 -3 152 -23 202 -31 76
-99 150 -169 184 -63 29 -179 41 -246 24z m189 -85 c139 -57 211 -269 154
-456 -19 -64 -29 -82 -79 -130 -58 -56 -109 -79 -179 -79 -47 0 -117 29 -160
66 -158 135 -136 481 36 581 74 44 152 49 228 18z"/>
<path d="M30213 1221 c-49 -13 -120 -58 -150 -96 -15 -18 -31 -31 -35 -29 -4
3 -8 30 -8 60 l0 54 -40 0 -40 0 0 -400 0 -400 45 0 45 0 0 281 0 281 27 50
c54 99 159 149 263 127 28 -6 64 -22 79 -35 55 -46 61 -86 61 -411 l0 -293 45
0 45 0 0 258 c-1 141 -5 290 -9 330 -18 151 -86 220 -222 227 -41 2 -88 1
-106 -4z"/>
<path d="M14830 810 l0 -400 45 0 45 0 0 400 0 400 -45 0 -45 0 0 -400z"/>
<path d="M18100 810 l0 -400 40 0 40 0 0 400 0 400 -40 0 -40 0 0 -400z"/>
<path d="M28760 810 l0 -400 40 0 40 0 0 400 0 400 -40 0 -40 0 0 -400z"/>
</g>
</svg>
